<mxfile host="app.diagrams.net" modified="2024-03-21T11:16:41.710Z" agent="Mozilla/5.0 (Macintosh; Intel Mac OS X 10_15_7) AppleWebKit/537.36 (KHTML, like Gecko) Chrome/122.0.0.0 Safari/537.36" etag="g3pQoKm2JFEnNYgyiooG" version="24.0.7" type="github">
  <diagram name="Page-1" id="gaQloLDde2CqD1FpQ-cP">
    <mxGraphModel dx="1242" dy="648" grid="1" gridSize="10" guides="1" tooltips="1" connect="1" arrows="1" fold="1" page="1" pageScale="1" pageWidth="850" pageHeight="1100" math="0" shadow="0">
      <root>
        <mxCell id="0" />
        <mxCell id="1" parent="0" />
        <mxCell id="nFpUhijqLWawbHpxaNXT-6" value="" style="edgeStyle=orthogonalEdgeStyle;rounded=0;orthogonalLoop=1;jettySize=auto;html=1;" edge="1" parent="1" source="nFpUhijqLWawbHpxaNXT-1" target="nFpUhijqLWawbHpxaNXT-5">
          <mxGeometry relative="1" as="geometry" />
        </mxCell>
        <mxCell id="nFpUhijqLWawbHpxaNXT-1" value="1. 100 news (sorted by date)" style="whiteSpace=wrap;html=1;aspect=fixed;" vertex="1" parent="1">
          <mxGeometry x="60" y="50" width="220" height="220" as="geometry" />
        </mxCell>
        <mxCell id="nFpUhijqLWawbHpxaNXT-4" value="Main page" style="text;html=1;align=center;verticalAlign=middle;whiteSpace=wrap;rounded=0;" vertex="1" parent="1">
          <mxGeometry x="60" y="20" width="60" height="30" as="geometry" />
        </mxCell>
        <mxCell id="nFpUhijqLWawbHpxaNXT-5" value="1." style="whiteSpace=wrap;html=1;" vertex="1" parent="1">
          <mxGeometry x="410" y="130" width="120" height="60" as="geometry" />
        </mxCell>
        <mxCell id="nFpUhijqLWawbHpxaNXT-7" value="News" style="text;html=1;align=center;verticalAlign=middle;whiteSpace=wrap;rounded=0;" vertex="1" parent="1">
          <mxGeometry x="410" y="100" width="60" height="30" as="geometry" />
        </mxCell>
      </root>
    </mxGraphModel>
  </diagram>
</mxfile>
